<?xml version="1.0" encoding="UTF-8"?><svg xmlns="http://www.w3.org/2000/svg" xmlns:xlink="http://www.w3.org/1999/xlink" fill-opacity="1" color-rendering="auto" color-interpolation="auto" text-rendering="auto" stroke="black" stroke-linecap="square" width="1216" stroke-miterlimit="10" shape-rendering="auto" stroke-opacity="1" fill="black" stroke-dasharray="none" font-weight="normal" stroke-width="1" height="797" font-family="'Dialog'" font-style="normal" stroke-linejoin="miter" font-size="12px" stroke-dashoffset="0" image-rendering="auto">
  <!--Generated by ySVG 2.5-->
  <defs id="genericDefs"/>
  <g>
    <defs id="defs1">
      <clipPath clipPathUnits="userSpaceOnUse" id="clipPath1">
        <path d="M0 0 L1216 0 L1216 797 L0 797 L0 0 Z"/>
      </clipPath>
      <clipPath clipPathUnits="userSpaceOnUse" id="clipPath2">
        <path d="M256 -208 L1472 -208 L1472 589 L256 589 L256 -208 Z"/>
      </clipPath>
    </defs>
    <g fill="white" text-rendering="geometricPrecision" shape-rendering="geometricPrecision" transform="translate(-256,208)" stroke="white">
      <rect x="256" width="1216" height="797" y="-208" clip-path="url(#clipPath2)" stroke="none"/>
    </g>
    <g fill="rgb(238,238,238)" text-rendering="geometricPrecision" shape-rendering="geometricPrecision" transform="matrix(1,0,0,1,-256,208)" stroke="rgb(238,238,238)">
      <rect x="271.5833" width="1185" height="650" y="-76.4922" clip-path="url(#clipPath2)" stroke="none"/>
    </g>
    <g stroke-linecap="butt" transform="matrix(1,0,0,1,-256,208)" fill="rgb(187,187,187)" text-rendering="geometricPrecision" shape-rendering="geometricPrecision" stroke="rgb(187,187,187)" stroke-width="2" stroke-miterlimit="1.45">
      <rect fill="none" x="271.5833" width="1185" height="650" y="-76.4922" clip-path="url(#clipPath2)"/>
    </g>
    <g fill="rgb(86,193,255)" text-rendering="geometricPrecision" shape-rendering="geometricPrecision" transform="matrix(1,0,0,1,-256,208)" stroke="rgb(86,193,255)">
      <rect x="827.1289" width="274" height="164" y="395.0234" clip-path="url(#clipPath2)" stroke="none"/>
      <rect stroke-linecap="butt" x="827.1289" y="395.0234" clip-path="url(#clipPath2)" fill="none" width="274" height="164" stroke-miterlimit="1.45"/>
      <rect x="847.6982" y="430.0234" clip-path="url(#clipPath2)" fill="rgb(249,186,0)" width="98" height="104" stroke="none"/>
    </g>
    <g stroke-linecap="butt" transform="matrix(1,0,0,1,-256,208)" fill="rgb(249,186,0)" text-rendering="geometricPrecision" shape-rendering="geometricPrecision" stroke="rgb(249,186,0)" stroke-miterlimit="1.45">
      <rect fill="none" x="847.6982" width="98" height="104" y="430.0234" clip-path="url(#clipPath2)"/>
      <text x="858.1289" y="486.1777" clip-path="url(#clipPath2)" fill="black" font-family="sans-serif" stroke="none" xml:space="preserve">Coordinators</text>
      <rect stroke-linecap="square" x="982.6982" y="430.0234" clip-path="url(#clipPath2)" width="98" height="104" stroke="none" stroke-miterlimit="10"/>
      <rect fill="none" x="982.6982" width="98" height="104" y="430.0234" clip-path="url(#clipPath2)"/>
      <text x="1002.5273" y="486.1777" clip-path="url(#clipPath2)" fill="black" font-family="sans-serif" stroke="none" xml:space="preserve">Overlords</text>
    </g>
    <g stroke-linecap="butt" transform="matrix(1,0,0,1,-256,208)" text-rendering="geometricPrecision" font-family="sans-serif" shape-rendering="geometricPrecision" font-weight="bold" stroke-miterlimit="1.45">
      <text x="837.9771" xml:space="preserve" y="413.1777" clip-path="url(#clipPath2)" stroke="none">Master Servers</text>
    </g>
    <g fill="rgb(86,193,255)" text-rendering="geometricPrecision" shape-rendering="geometricPrecision" transform="matrix(1,0,0,1,-256,208)" stroke="rgb(86,193,255)">
      <rect x="789.9307" width="274" height="164" y="24.5078" clip-path="url(#clipPath2)" stroke="none"/>
      <rect stroke-linecap="butt" x="789.9307" y="24.5078" clip-path="url(#clipPath2)" fill="none" width="274" height="164" stroke-miterlimit="1.45"/>
      <rect x="810.5" y="59.5078" clip-path="url(#clipPath2)" fill="rgb(249,186,0)" width="98" height="104" stroke="none"/>
    </g>
    <g stroke-linecap="butt" transform="matrix(1,0,0,1,-256,208)" fill="rgb(249,186,0)" text-rendering="geometricPrecision" shape-rendering="geometricPrecision" stroke="rgb(249,186,0)" stroke-miterlimit="1.45">
      <rect fill="none" x="810.5" width="98" height="104" y="59.5078" clip-path="url(#clipPath2)"/>
      <text x="836.2207" y="108.6777" clip-path="url(#clipPath2)" fill="black" font-family="sans-serif" stroke="none" xml:space="preserve">Routers</text>
      <text x="830.502" y="122.6465" clip-path="url(#clipPath2)" fill="black" font-family="sans-serif" stroke="none" xml:space="preserve">(optional)</text>
      <rect stroke-linecap="square" x="945.5" y="59.5078" clip-path="url(#clipPath2)" width="98" height="104" stroke="none" stroke-miterlimit="10"/>
      <rect fill="none" x="945.5" width="98" height="104" y="59.5078" clip-path="url(#clipPath2)"/>
      <text x="971.4873" y="115.6621" clip-path="url(#clipPath2)" fill="black" font-family="sans-serif" stroke="none" xml:space="preserve">Brokers</text>
    </g>
    <g stroke-linecap="butt" transform="matrix(1,0,0,1,-256,208)" text-rendering="geometricPrecision" font-family="sans-serif" shape-rendering="geometricPrecision" font-weight="bold" stroke-miterlimit="1.45">
      <text x="803.9546" xml:space="preserve" y="42.6621" clip-path="url(#clipPath2)" stroke="none">Query Servers</text>
    </g>
    <g fill="rgb(86,193,255)" text-rendering="geometricPrecision" shape-rendering="geometricPrecision" transform="matrix(1,0,0,1,-256,208)" stroke="rgb(86,193,255)">
      <rect x="486.2153" width="274" height="164" y="24.5078" clip-path="url(#clipPath2)" stroke="none"/>
      <rect stroke-linecap="butt" x="486.2153" y="24.5078" clip-path="url(#clipPath2)" fill="none" width="274" height="164" stroke-miterlimit="1.45"/>
      <rect x="506.7847" y="59.5078" clip-path="url(#clipPath2)" fill="rgb(249,186,0)" width="98" height="104" stroke="none"/>
    </g>
    <g stroke-linecap="butt" transform="matrix(1,0,0,1,-256,208)" fill="rgb(249,186,0)" text-rendering="geometricPrecision" shape-rendering="geometricPrecision" stroke="rgb(249,186,0)" stroke-miterlimit="1.45">
      <rect fill="none" x="506.7847" width="98" height="104" y="59.5078" clip-path="url(#clipPath2)"/>
      <text x="535.9653" y="108.6777" clip-path="url(#clipPath2)" fill="black" font-family="sans-serif" stroke="none" xml:space="preserve">Middle</text>
      <text x="529.4849" y="122.6465" clip-path="url(#clipPath2)" fill="black" font-family="sans-serif" stroke="none" xml:space="preserve">Manager</text>
      <rect stroke-linecap="square" x="641.7847" y="59.5078" clip-path="url(#clipPath2)" width="98" height="104" stroke="none" stroke-miterlimit="10"/>
      <rect fill="none" x="641.7847" width="98" height="104" y="59.5078" clip-path="url(#clipPath2)"/>
      <text x="659.5542" y="115.6621" clip-path="url(#clipPath2)" fill="black" font-family="sans-serif" stroke="none" xml:space="preserve">Historicals</text>
    </g>
    <g stroke-linecap="butt" transform="matrix(1,0,0,1,-256,208)" text-rendering="geometricPrecision" font-family="sans-serif" shape-rendering="geometricPrecision" font-weight="bold" stroke-miterlimit="1.45">
      <text x="504.6045" xml:space="preserve" y="42.6621" clip-path="url(#clipPath2)" stroke="none">Data Servers</text>
    </g>
    <g fill="rgb(239,186,141)" text-rendering="geometricPrecision" shape-rendering="geometricPrecision" transform="matrix(1,0,0,1,-256,208)" stroke="rgb(239,186,141)">
      <rect x="423.7676" width="699" height="104" y="251.5078" clip-path="url(#clipPath2)" stroke="none"/>
      <rect stroke-linecap="butt" x="423.7676" y="251.5078" clip-path="url(#clipPath2)" fill="none" width="699" height="104" stroke-miterlimit="1.45"/>
      <rect x="700.0522" y="283.5078" clip-path="url(#clipPath2)" fill="rgb(208,226,243)" width="146.4307" rx="4" ry="4" height="40" stroke="none"/>
    </g>
    <g stroke-linecap="butt" transform="matrix(1,0,0,1,-256,208)" fill="rgb(208,226,243)" text-rendering="geometricPrecision" shape-rendering="geometricPrecision" stroke="rgb(208,226,243)" stroke-miterlimit="1.45">
      <rect x="700.0522" y="283.5078" clip-path="url(#clipPath2)" fill="none" width="146.4307" rx="4" ry="4" height="40"/>
      <text x="740.9912" y="307.6621" clip-path="url(#clipPath2)" fill="black" font-family="sans-serif" stroke="none" xml:space="preserve">Zookeeper</text>
      <rect stroke-linecap="square" x="934.2676" y="283.5078" clip-path="url(#clipPath2)" width="146.4307" rx="4" ry="4" height="40" stroke="none" stroke-miterlimit="10"/>
      <rect x="934.2676" y="283.5078" clip-path="url(#clipPath2)" fill="none" width="146.4307" rx="4" ry="4" height="40"/>
      <text x="953.688" y="307.6621" clip-path="url(#clipPath2)" fill="black" font-family="sans-serif" stroke="none" xml:space="preserve">Metadata Storage</text>
      <rect stroke-linecap="square" x="465.8369" y="283.5078" clip-path="url(#clipPath2)" width="146.4307" rx="4" ry="4" height="40" stroke="none" stroke-miterlimit="10"/>
      <rect x="465.8369" y="283.5078" clip-path="url(#clipPath2)" fill="none" width="146.4307" rx="4" ry="4" height="40"/>
      <text x="497.8579" y="307.6621" clip-path="url(#clipPath2)" fill="black" font-family="sans-serif" stroke="none" xml:space="preserve">Deep Storage</text>
    </g>
    <g fill="rgb(86,193,255)" text-rendering="geometricPrecision" shape-rendering="geometricPrecision" transform="matrix(1,0,0,1,-256,208)" stroke="rgb(86,193,255)">
      <rect x="1225.4653" width="25" height="25" y="235.5391" clip-path="url(#clipPath2)" stroke="none"/>
      <rect stroke-linecap="butt" x="1225.4653" y="235.5391" clip-path="url(#clipPath2)" fill="none" width="25" height="25" stroke-miterlimit="1.45"/>
      <rect x="1225.4653" y="265.5391" clip-path="url(#clipPath2)" fill="rgb(249,186,0)" width="25" height="25" stroke="none"/>
    </g>
    <g stroke-linecap="butt" transform="matrix(1,0,0,1,-256,208)" fill="rgb(249,186,0)" text-rendering="geometricPrecision" shape-rendering="geometricPrecision" stroke="rgb(249,186,0)" stroke-miterlimit="1.45">
      <rect fill="none" x="1225.4653" width="25" height="25" y="265.5391" clip-path="url(#clipPath2)"/>
    </g>
    <g fill="rgb(208,226,243)" text-rendering="geometricPrecision" shape-rendering="geometricPrecision" transform="matrix(1,0,0,1,-256,208)" stroke="rgb(208,226,243)">
      <rect x="1217.9653" y="325.5391" clip-path="url(#clipPath2)" width="40" rx="4" ry="4" height="25" stroke="none"/>
      <rect stroke-linecap="butt" x="1217.9653" y="325.5391" clip-path="url(#clipPath2)" fill="none" width="40" rx="4" ry="4" height="25" stroke-miterlimit="1.45"/>
    </g>
    <g font-size="11px" stroke-linecap="butt" transform="matrix(1,0,0,1,-256,208)" text-rendering="geometricPrecision" font-family="sans-serif" shape-rendering="geometricPrecision" font-weight="bold" stroke-miterlimit="1.45">
      <text x="1272.4653" xml:space="preserve" y="251.8472" clip-path="url(#clipPath2)" stroke="none">Druid servers</text>
      <text x="1272.4653" xml:space="preserve" y="281.8472" clip-path="url(#clipPath2)" stroke="none">Druid processes</text>
      <text x="1272.4653" xml:space="preserve" y="341.8472" clip-path="url(#clipPath2)" stroke="none">External Dependencies</text>
    </g>
    <g fill="rgb(238,238,238)" text-rendering="geometricPrecision" shape-rendering="geometricPrecision" transform="matrix(1,0,0,1,-256,208)" stroke="rgb(238,238,238)">
      <rect x="1185.0347" width="25" height="25" y="364.0234" clip-path="url(#clipPath2)" stroke="none"/>
      <rect stroke-linecap="butt" x="1185.0347" y="364.0234" clip-path="url(#clipPath2)" fill="none" width="25" height="25" stroke-miterlimit="1.45"/>
      <rect x="1257.9653" width="25" height="25" y="364.0234" clip-path="url(#clipPath2)" stroke="none"/>
      <rect stroke-linecap="butt" x="1257.9653" y="364.0234" clip-path="url(#clipPath2)" fill="none" width="25" height="25" stroke-miterlimit="1.45"/>
      <rect x="1185.0347" width="25" height="25" y="396.5234" clip-path="url(#clipPath2)" stroke="none"/>
      <rect stroke-linecap="butt" x="1185.0347" y="396.5234" clip-path="url(#clipPath2)" fill="none" width="25" height="25" stroke-miterlimit="1.45"/>
      <rect x="1257.9653" width="25" height="25" y="396.5234" clip-path="url(#clipPath2)" stroke="none"/>
      <rect stroke-linecap="butt" x="1257.9653" y="396.5234" clip-path="url(#clipPath2)" fill="none" width="25" height="25" stroke-miterlimit="1.45"/>
      <rect x="1185.0347" width="25" height="25" y="429.0234" clip-path="url(#clipPath2)" stroke="none"/>
      <rect stroke-linecap="butt" x="1185.0347" y="429.0234" clip-path="url(#clipPath2)" fill="none" width="25" height="25" stroke-miterlimit="1.45"/>
      <rect x="1257.9653" width="25" height="25" y="429.0234" clip-path="url(#clipPath2)" stroke="none"/>
      <rect stroke-linecap="butt" x="1257.9653" y="429.0234" clip-path="url(#clipPath2)" fill="none" width="25" height="25" stroke-miterlimit="1.45"/>
    </g>
    <g font-size="11px" stroke-linecap="butt" transform="matrix(1,0,0,1,-256,208)" text-rendering="geometricPrecision" font-family="sans-serif" shape-rendering="geometricPrecision" font-weight="bold" stroke-miterlimit="1.45">
      <text x="1271.0425" xml:space="preserve" y="380.3315" clip-path="url(#clipPath2)" stroke="none">Queries</text>
      <text x="1271.4324" xml:space="preserve" y="412.8315" clip-path="url(#clipPath2)" stroke="none">Metadata</text>
      <text x="1271.4312" xml:space="preserve" y="441.8159" clip-path="url(#clipPath2)" stroke="none">Data/Segments</text>
    </g>
    <g fill="rgb(0,204,0)" text-rendering="geometricPrecision" shape-rendering="geometricPrecision" transform="matrix(1,0,0,1,-256,208)" stroke="rgb(0,204,0)">
      <rect x="337.9307" width="98" height="104" y="59.5078" clip-path="url(#clipPath2)" stroke="none"/>
      <rect stroke-linecap="butt" x="337.9307" y="59.5078" clip-path="url(#clipPath2)" fill="none" width="98" height="104" stroke-miterlimit="1.45"/>
    </g>
    <g text-rendering="geometricPrecision" stroke-miterlimit="1.45" shape-rendering="geometricPrecision" font-family="sans-serif" transform="matrix(1,0,0,1,-256,208)" stroke-linecap="butt">
      <text x="370.0557" xml:space="preserve" y="115.6621" clip-path="url(#clipPath2)" stroke="none">Kafka</text>
    </g>
    <g fill="rgb(0,204,0)" text-rendering="geometricPrecision" shape-rendering="geometricPrecision" transform="matrix(1,0,0,1,-256,208)" stroke="rgb(0,204,0)">
      <rect x="1104.9307" width="98" height="104" y="59.5078" clip-path="url(#clipPath2)" stroke="none"/>
      <rect stroke-linecap="butt" x="1104.9307" y="59.5078" clip-path="url(#clipPath2)" fill="none" width="98" height="104" stroke-miterlimit="1.45"/>
    </g>
    <g text-rendering="geometricPrecision" stroke-miterlimit="1.45" shape-rendering="geometricPrecision" font-family="sans-serif" transform="matrix(1,0,0,1,-256,208)" stroke-linecap="butt">
      <text x="1138.6582" xml:space="preserve" y="115.6621" clip-path="url(#clipPath2)" stroke="none">Trino</text>
    </g>
    <g fill="rgb(0,204,0)" text-rendering="geometricPrecision" shape-rendering="geometricPrecision" transform="matrix(1,0,0,1,-256,208)" stroke="rgb(0,204,0)">
      <rect x="1225.4653" width="25" height="25" y="295.5391" clip-path="url(#clipPath2)" stroke="none"/>
      <rect stroke-linecap="butt" x="1225.4653" y="295.5391" clip-path="url(#clipPath2)" fill="none" width="25" height="25" stroke-miterlimit="1.45"/>
    </g>
    <g font-size="11px" stroke-linecap="butt" transform="matrix(1,0,0,1,-256,208)" text-rendering="geometricPrecision" font-family="sans-serif" shape-rendering="geometricPrecision" font-weight="bold" stroke-miterlimit="1.45">
      <text x="1272.4653" xml:space="preserve" y="311.8472" clip-path="url(#clipPath2)" stroke="none">Other clients/servers</text>
      <text x="542.2397" xml:space="preserve" font-size="12px" y="346.6777" clip-path="url(#clipPath2)" stroke="none">External Dependencies</text>
    </g>
    <g fill="rgb(0,204,0)" text-rendering="geometricPrecision" shape-rendering="geometricPrecision" transform="matrix(1,0,0,1,-256,208)" stroke="rgb(0,204,0)">
      <rect x="1249.9307" width="98" height="104" y="59.5078" clip-path="url(#clipPath2)" stroke="none"/>
      <rect stroke-linecap="butt" x="1249.9307" y="59.5078" clip-path="url(#clipPath2)" fill="none" width="98" height="104" stroke-miterlimit="1.45"/>
    </g>
    <g text-rendering="geometricPrecision" stroke-miterlimit="1.45" shape-rendering="geometricPrecision" font-family="sans-serif" transform="matrix(1,0,0,1,-256,208)" stroke-linecap="butt">
      <text x="1269.7305" xml:space="preserve" y="115.6621" clip-path="url(#clipPath2)" stroke="none">Metabase</text>
    </g>
    <g fill="rgb(0,204,0)" text-rendering="geometricPrecision" shape-rendering="geometricPrecision" transform="matrix(1,0,0,1,-256,208)" stroke="rgb(0,204,0)">
      <rect x="337.9307" width="98" height="104" y="-192.4922" clip-path="url(#clipPath2)" stroke="none"/>
      <rect stroke-linecap="butt" x="337.9307" y="-192.4922" clip-path="url(#clipPath2)" fill="none" width="98" height="104" stroke-miterlimit="1.45"/>
    </g>
    <g text-rendering="geometricPrecision" stroke-miterlimit="1.45" shape-rendering="geometricPrecision" font-family="sans-serif" transform="matrix(1,0,0,1,-256,208)" stroke-linecap="butt">
      <text x="361.9316" xml:space="preserve" y="-143.3223" clip-path="url(#clipPath2)" stroke="none">External</text>
      <text x="352.5479" xml:space="preserve" y="-129.3535" clip-path="url(#clipPath2)" stroke="none">Datasource</text>
      <text x="395.4917" xml:space="preserve" y="12.6777" clip-path="url(#clipPath2)" stroke="none">Data Import</text>
    </g>
    <g fill="rgb(0,204,0)" text-rendering="geometricPrecision" shape-rendering="geometricPrecision" transform="matrix(1,0,0,1,-256,208)" stroke="rgb(0,204,0)">
      <rect x="1104.9307" width="98" height="104" y="-192.4922" clip-path="url(#clipPath2)" stroke="none"/>
      <rect stroke-linecap="butt" x="1104.9307" y="-192.4922" clip-path="url(#clipPath2)" fill="none" width="98" height="104" stroke-miterlimit="1.45"/>
    </g>
    <g text-rendering="geometricPrecision" stroke-miterlimit="1.45" shape-rendering="geometricPrecision" font-family="sans-serif" transform="matrix(1,0,0,1,-256,208)" stroke-linecap="butt">
      <text x="1114.1455" xml:space="preserve" y="-136.3379" clip-path="url(#clipPath2)" stroke="none">Web Browser</text>
    </g>
    <g fill="rgb(0,204,0)" text-rendering="geometricPrecision" shape-rendering="geometricPrecision" transform="matrix(1,0,0,1,-256,208)" stroke="rgb(0,204,0)">
      <rect x="796.5" width="98" height="104" y="-192.4922" clip-path="url(#clipPath2)" stroke="none"/>
      <rect stroke-linecap="butt" x="796.5" y="-192.4922" clip-path="url(#clipPath2)" fill="none" width="98" height="104" stroke-miterlimit="1.45"/>
    </g>
    <g text-rendering="geometricPrecision" stroke-miterlimit="1.45" shape-rendering="geometricPrecision" font-family="sans-serif" transform="matrix(1,0,0,1,-256,208)" stroke-linecap="butt">
      <text x="806.0605" xml:space="preserve" y="-136.3379" clip-path="url(#clipPath2)" stroke="none">Other Clients</text>
      <text x="492.0884" font-size="20px" y="-42.8809" clip-path="url(#clipPath2)" stroke="none" font-weight="bold" xml:space="preserve">ODISS-Docker</text>
      <path fill="none" d="M994.5 45.7578 L994.5 -6.4922 L648.7847 -6.4922 L648.7847 35.5078 L613.9177 53.2642" stroke-width="3" clip-path="url(#clipPath2)"/>
      <path d="M994.5 59.5078 L1002 44.5078 L987 44.5078 Z" stroke-width="3" clip-path="url(#clipPath2)" stroke="none"/>
      <path d="M601.665 59.5039 L618.4351 59.3802 L611.628 46.0136 Z" stroke-width="3" clip-path="url(#clipPath2)" stroke="none"/>
      <path fill="none" d="M678.8053 52.6625 L648.7847 35.5078 L648.7847 -6.4922 L994.5 -6.4922 L994.5 45.7578" stroke-width="3" clip-path="url(#clipPath2)"/>
      <path d="M690.7437 59.4844 L681.441 45.5305 L673.999 58.5541 Z" stroke-width="3" clip-path="url(#clipPath2)" stroke="none"/>
      <path d="M994.5 59.5078 L1002 44.5078 L987 44.5078 Z" stroke-width="3" clip-path="url(#clipPath2)" stroke="none"/>
      <path fill="none" stroke-dasharray="6,2" d="M840.2844 436.0807 L745.3386 331.6542" clip-path="url(#clipPath2)"/>
      <path stroke-dasharray="6,2" d="M847.6843 444.2196 L844.051 431.3045 L835.1722 439.3771 Z" clip-path="url(#clipPath2)" stroke="none"/>
      <path stroke-dasharray="6,2" d="M737.9386 323.5154 L741.5719 336.4305 L750.4506 328.3578 Z" clip-path="url(#clipPath2)" stroke="none"/>
      <path fill="none" stroke-dasharray="6,2" d="M990.6797 423.8319 L852.353 329.636" clip-path="url(#clipPath2)"/>
      <path stroke-dasharray="6,2" d="M999.7718 430.0233 L993.2303 418.3097 L986.476 428.2284 Z" clip-path="url(#clipPath2)" stroke="none"/>
      <path stroke-dasharray="6,2" d="M843.2609 323.4446 L849.8024 335.1582 L856.5567 325.2395 Z" clip-path="url(#clipPath2)" stroke="none"/>
      <path fill="none" stroke-dasharray="6,2" d="M960.9333 171.2979 L853.9725 278.1432" clip-path="url(#clipPath2)"/>
      <path stroke-dasharray="6,2" d="M968.7158 163.5239 L955.9855 167.7597 L964.4662 176.2496 Z" clip-path="url(#clipPath2)" stroke="none"/>
      <path stroke-dasharray="6,2" d="M846.1901 285.9172 L858.9203 281.6814 L850.4396 273.1916 Z" clip-path="url(#clipPath2)" stroke="none"/>
      <path fill="none" stroke-dasharray="6,2" d="M591.0309 170.0718 L735.3424 276.9272" clip-path="url(#clipPath2)"/>
      <path stroke-dasharray="6,2" d="M582.1906 163.526 L588.2641 175.4889 L595.405 165.8449 Z" clip-path="url(#clipPath2)" stroke="none"/>
      <path stroke-dasharray="6,2" d="M744.1827 283.4731 L738.1092 271.5101 L730.9683 281.1542 Z" clip-path="url(#clipPath2)" stroke="none"/>
      <path fill="none" stroke-dasharray="6,2" d="M717.1079 173.3012 L768.2729 273.6974" clip-path="url(#clipPath2)"/>
      <path stroke-dasharray="6,2" d="M712.1132 163.5005 L712.2162 176.9165 L722.9078 171.4678 Z" clip-path="url(#clipPath2)" stroke="none"/>
      <path stroke-dasharray="6,2" d="M773.2676 283.498 L773.1646 270.082 L762.473 275.5308 Z" clip-path="url(#clipPath2)" stroke="none"/>
      <path fill="none" stroke-dasharray="6,2" d="M831.6387 173.5422 L786.7546 273.4783" clip-path="url(#clipPath2)"/>
      <path stroke-dasharray="6,2" d="M836.1454 163.5078 L825.7557 171.9962 L836.7023 176.9127 Z" clip-path="url(#clipPath2)" stroke="none"/>
      <path stroke-dasharray="6,2" d="M782.2479 283.5127 L792.6376 275.0243 L781.691 270.1078 Z" clip-path="url(#clipPath2)" stroke="none"/>
      <path fill="none" stroke-dasharray="6,2" d="M950.2596 420.5233 L1001.894 332.992" clip-path="url(#clipPath2)"/>
      <path stroke-dasharray="6,2" d="M944.6707 429.9977 L955.9355 422.7105 L945.5998 416.6135 Z" clip-path="url(#clipPath2)" stroke="none"/>
      <path stroke-dasharray="6,2" d="M1007.4829 323.5176 L996.2181 330.8048 L1006.5538 336.9018 Z" clip-path="url(#clipPath2)" stroke="none"/>
      <path fill="none" stroke-dasharray="6,2" d="M1031.6982 419.0234 L1031.6982 334.5312" clip-path="url(#clipPath2)"/>
      <path stroke-dasharray="6,2" d="M1031.6982 430.0234 L1037.6982 418.0234 L1025.6982 418.0234 Z" clip-path="url(#clipPath2)" stroke="none"/>
      <path stroke-dasharray="6,2" d="M1031.6982 323.5312 L1025.6982 335.5312 L1037.6982 335.5312 Z" clip-path="url(#clipPath2)" stroke="none"/>
    </g>
    <g stroke-linecap="round" transform="matrix(1,0,0,1,-256,208)" text-rendering="geometricPrecision" shape-rendering="geometricPrecision" stroke-dasharray="8,6,0,6" stroke-width="2" stroke-miterlimit="1.45">
      <path fill="none" d="M526.382 175.8339 L535.846 271.1998" clip-path="url(#clipPath2)"/>
      <path d="M525.1599 163.5194 L519.7761 177.6199 L533.2101 176.2868 Z" clip-path="url(#clipPath2)" stroke="none"/>
      <path d="M537.0681 283.5143 L542.4519 269.4137 L529.0179 270.7469 Z" clip-path="url(#clipPath2)" stroke="none"/>
      <path fill="none" d="M646.069 173.1744 L565.4109 273.8733" clip-path="url(#clipPath2)"/>
      <path d="M653.8054 163.5157 L640.0974 169.8326 L650.634 178.2723 Z" clip-path="url(#clipPath2)" stroke="none"/>
      <path d="M557.6745 283.5319 L571.3826 277.2151 L560.8459 268.7754 Z" clip-path="url(#clipPath2)" stroke="none"/>
      <path fill="none" stroke-dasharray="none" d="M1210.0347 376.5234 L1244.2153 376.5234" stroke-width="3" clip-path="url(#clipPath2)" stroke-linecap="butt"/>
      <path stroke-dasharray="none" d="M1257.9653 376.5234 L1242.9653 369.0234 L1242.9653 384.0234 Z" stroke-width="3" clip-path="url(#clipPath2)" stroke-linecap="butt" stroke="none"/>
      <path fill="none" stroke-dasharray="6,2" d="M1210.0347 409.0234 L1246.9653 409.0234" stroke-width="1" clip-path="url(#clipPath2)" stroke-linecap="butt"/>
      <path stroke-dasharray="6,2" d="M1257.9653 409.0234 L1245.9653 403.0234 L1245.9653 415.0234 Z" stroke-width="1" clip-path="url(#clipPath2)" stroke-linecap="butt" stroke="none"/>
      <path fill="none" d="M1210.0347 441.5234 L1245.5903 441.5234" clip-path="url(#clipPath2)"/>
      <path d="M1257.9653 441.5234 L1244.4653 434.7734 L1244.4653 448.2734 Z" clip-path="url(#clipPath2)" stroke="none"/>
      <path fill="none" stroke-dasharray="6,2" d="M431.4523 167.8551 L691.9687 279.6617" stroke-width="1" clip-path="url(#clipPath2)" stroke-linecap="butt"/>
      <path stroke-dasharray="6,2" d="M421.3439 163.5168 L430.0049 173.7631 L434.7375 162.7358 Z" stroke-width="1" clip-path="url(#clipPath2)" stroke-linecap="butt" stroke="none"/>
      <path stroke-dasharray="6,2" d="M702.0771 283.9999 L693.4161 273.7536 L688.6834 284.781 Z" stroke-width="1" clip-path="url(#clipPath2)" stroke-linecap="butt" stroke="none"/>
      <path fill="none" d="M435.9307 111.5078 L494.4097 111.5078" clip-path="url(#clipPath2)"/>
      <path d="M506.7847 111.5078 L493.2847 104.7578 L493.2847 118.2578 Z" clip-path="url(#clipPath2)" stroke="none"/>
      <path fill="none" stroke-dasharray="none" d="M1104.9307 111.5078 L1057.25 111.5078" stroke-width="3" clip-path="url(#clipPath2)" stroke-linecap="butt"/>
      <path stroke-dasharray="none" d="M1043.5 111.5078 L1058.5 119.0078 L1058.5 104.0078 Z" stroke-width="3" clip-path="url(#clipPath2)" stroke-linecap="butt" stroke="none"/>
      <path fill="none" stroke-dasharray="none" d="M1249.9307 111.5078 L1216.6807 111.5078" stroke-width="3" clip-path="url(#clipPath2)" stroke-linecap="butt"/>
      <path stroke-dasharray="none" d="M1202.9307 111.5078 L1217.9307 119.0078 L1217.9307 104.0078 Z" stroke-width="3" clip-path="url(#clipPath2)" stroke-linecap="butt" stroke="none"/>
      <path fill="none" d="M386.9307 -88.4922 L386.9307 47.1328" clip-path="url(#clipPath2)"/>
      <path d="M386.9307 59.5078 L393.6807 46.0078 L380.1807 46.0078 Z" clip-path="url(#clipPath2)" stroke="none"/>
      <path fill="none" d="M1202.9233 -89.3177 L1268.7339 48.343" clip-path="url(#clipPath2)"/>
      <path d="M1274.0714 59.5078 L1274.3385 44.4167 L1262.1588 50.2394 Z" clip-path="url(#clipPath2)" stroke="none"/>
      <path fill="none" d="M1104.902 -117.1624 L913.8051 51.2912" clip-path="url(#clipPath2)"/>
      <path d="M904.5219 59.4744 L919.1125 55.6108 L910.1854 45.4838 Z" clip-path="url(#clipPath2)" stroke="none"/>
      <path fill="none" stroke-dasharray="6,2" d="M1153.9307 -88.4922 L1153.9307 48.5078" stroke-width="1" clip-path="url(#clipPath2)" stroke-linecap="butt"/>
      <path stroke-dasharray="6,2" d="M1153.9307 59.5078 L1159.9307 47.5078 L1147.9307 47.5078 Z" stroke-width="1" clip-path="url(#clipPath2)" stroke-linecap="butt" stroke="none"/>
      <path fill="none" stroke-dasharray="none" d="M845.5 -88.4922 L845.5 51.5197" stroke-width="1" clip-path="url(#clipPath2)" stroke-linecap="butt"/>
      <path stroke-dasharray="none" d="M845.5 59.5197 L850.5 47.5197 L845.5 50.5197 L840.5 47.5197 Z" stroke-width="1" clip-path="url(#clipPath2)" stroke-linecap="butt" stroke="none"/>
    </g>
  </g>
</svg>
